<svg width="174" height="174" viewBox="0 0 174 174" fill="none" xmlns="http://www.w3.org/2000/svg">
<rect width="174" height="174" rx="40" fill="#1C87FF"/>
<path d="M82.4834 83.4668C82.6527 83.5938 83.1393 83.6572 83.9434 83.6572C84.7474 83.6572 85.361 83.3398 85.7842 82.7051C86.2074 82.0703 86.4189 81.0335 86.4189 79.5947V77.3096C86.4189 75.7861 86.2285 74.707 85.8477 74.0723C85.5091 73.3952 84.9167 73.0566 84.0703 73.0566C83.2663 73.0566 82.7161 73.1413 82.4199 73.3105C82.4622 73.5221 82.4834 73.8818 82.4834 74.3896V83.4668ZM115.237 97.9395L126.219 109.175C125.457 115.776 123.362 120.854 119.935 124.409C116.549 127.964 111.852 129.741 105.843 129.741C101.315 129.741 97.3792 128.662 94.0361 126.504C89.762 123.796 86.5671 119.479 84.4512 113.555L82.166 107.334C80.3887 107.292 78.1458 107.059 75.4375 106.636C75.099 106.974 74.9297 107.44 74.9297 108.032C74.9297 109.175 76.6436 109.852 80.0713 110.063L83.6895 119.204V124.6C78.8229 128.027 72.5811 129.741 64.9639 129.741C59.5049 129.741 55.1462 128.62 51.8877 126.377C48.6292 124.134 47 120.876 47 116.602V56.2988C47 54.4368 48.7139 52.6383 52.1416 50.9033C55.5693 49.126 60.055 47.7083 65.5986 46.6504C71.1423 45.5501 76.6859 45 82.2295 45C94.9248 45 104.848 47.6025 112 52.8076C119.533 58.2666 123.299 65.9473 123.299 75.8496C123.299 81.5202 121.691 86.3867 118.475 90.4492C115.301 94.4694 111.281 97.2624 106.414 98.8281C106.414 100.182 107.218 100.859 108.826 100.859C110.477 100.859 112.614 99.8861 115.237 97.9395Z" fill="white"/>
</svg>
